<mxfile host="app.diagrams.net" agent="Mozilla/5.0 (Windows NT 10.0; Win64; x64) AppleWebKit/537.36 (KHTML, like Gecko) Chrome/134.0.0.0 Safari/537.36" version="26.1.0">
  <diagram name="페이지-1" id="YSCTNkz7b_ns-lzBen_d">
    <mxGraphModel dx="679" dy="566" grid="1" gridSize="10" guides="1" tooltips="1" connect="1" arrows="1" fold="1" page="1" pageScale="1" pageWidth="827" pageHeight="1169" math="0" shadow="0">
      <root>
        <mxCell id="0" />
        <mxCell id="1" parent="0" />
        <mxCell id="KFPJ8PtCt9sW5i1ds0IN-5" value="" style="group" vertex="1" connectable="0" parent="1">
          <mxGeometry x="20" y="760" width="600" height="320" as="geometry" />
        </mxCell>
        <mxCell id="KFPJ8PtCt9sW5i1ds0IN-1" value="" style="rounded=0;whiteSpace=wrap;html=1;" vertex="1" parent="KFPJ8PtCt9sW5i1ds0IN-5">
          <mxGeometry width="200" height="320" as="geometry" />
        </mxCell>
        <mxCell id="KFPJ8PtCt9sW5i1ds0IN-3" value="" style="rounded=0;whiteSpace=wrap;html=1;" vertex="1" parent="KFPJ8PtCt9sW5i1ds0IN-5">
          <mxGeometry x="400" width="200" height="320" as="geometry" />
        </mxCell>
        <mxCell id="KFPJ8PtCt9sW5i1ds0IN-4" value="" style="rounded=0;whiteSpace=wrap;html=1;" vertex="1" parent="KFPJ8PtCt9sW5i1ds0IN-5">
          <mxGeometry x="200" width="200" height="320" as="geometry" />
        </mxCell>
        <mxCell id="KFPJ8PtCt9sW5i1ds0IN-6" value="stack" style="text;html=1;align=center;verticalAlign=middle;whiteSpace=wrap;rounded=0;" vertex="1" parent="KFPJ8PtCt9sW5i1ds0IN-5">
          <mxGeometry x="270" width="60" height="30" as="geometry" />
        </mxCell>
        <mxCell id="KFPJ8PtCt9sW5i1ds0IN-7" value="heap" style="text;html=1;align=center;verticalAlign=middle;whiteSpace=wrap;rounded=0;" vertex="1" parent="KFPJ8PtCt9sW5i1ds0IN-5">
          <mxGeometry x="470" width="60" height="30" as="geometry" />
        </mxCell>
      </root>
    </mxGraphModel>
  </diagram>
</mxfile>
